<?xml version="1.0" standalone="no"?><svg xmlns="http://www.w3.org/2000/svg" 
viewBox="150 56 1000 150">  <defs>
    <linearGradient id="grad1" x1="0%" y1="0%" x2="0%" y2="40%">
      <stop offset="0%" style="stop-color:rgb(120,0,255);stop-opacity:1" />
      <stop offset="100%" style="stop-color:rgb(59,67,77);stop-opacity:1" />
    </linearGradient>
  </defs><path fill="url(#grad1)" fill-opacity="1" d="M0,32L60,42.7C120,53,240,75,360,80C480,85,600,75,720,80C840,85,960,107,1080,144C1200,181,1320,235,1380,261.3L1440,288L1440,0L1380,0C1320,0,1200,0,1080,0C960,0,840,0,720,0C600,0,480,0,360,0C240,0,120,0,60,0L0,0Z"></path></svg>