<?xml version="1.0" standalone="no"?><svg xmlns="http://www.w3.org/2000/svg" viewBox=" 150 -140 1000 320">
<defs>
    <linearGradient id="grad1" x1="0%" y1="20%" x2="0%" y2="100%">
      <stop offset="0%" style="stop-color:rgb(59,67,77);stop-opacity:1" />
      <stop offset="100%" style="stop-color:rgb(120,0,255);stop-opacity:1" />
    </linearGradient>
  </defs><path fill="url(#grad1)" fill-opacity="1" d="M0,32L60,58.7C120,85,240,139,360,160C480,181,600,171,720,149.3C840,128,960,96,1080,101.3C1200,107,1320,149,1380,170.7L1440,192L1440,320L1380,320C1320,320,1200,320,1080,320C960,320,840,320,720,320C600,320,480,320,360,320C240,320,120,320,60,320L0,320Z"></path></svg>